<?xml version="1.0" encoding="utf-8"?>
<!-- Generator: Adobe Illustrator 16.0.0, SVG Export Plug-In . SVG Version: 6.00 Build 0)  -->
<!DOCTYPE svg PUBLIC "-//W3C//DTD SVG 1.1//EN" "http://www.w3.org/Graphics/SVG/1.1/DTD/svg11.dtd">
<svg version="1.1" id="Layer_1" xmlns="http://www.w3.org/2000/svg" xmlns:xlink="http://www.w3.org/1999/xlink" x="0px" y="0px"
	 width="30px" height="30px" viewBox="0 0 30 30" enable-background="new 0 0 30 30" xml:space="preserve">
<g>
	<path d="M25.8,18l-1.3-1.2c0.2-1.1,0.2-2.3,0-3.4l1.3-1.3c0.5-0.5,0.6-1.2,0.3-1.8l-1.4-2.5c-0.3-0.6-1-0.9-1.7-0.7l-1.7,0.5
		c-0.9-0.7-1.9-1.3-3-1.7l-0.4-1.8C17.7,3.5,17.1,3,16.4,3l-2.9,0c-0.7,0-1.3,0.5-1.4,1.1l-0.4,1.8c-0.5,0.2-1.1,0.4-1.6,0.7
		c-0.5,0.3-1,0.6-1.4,1L7,7.1C6.4,6.9,5.7,7.2,5.3,7.8l-1.4,2.5c-0.3,0.6-0.2,1.3,0.3,1.8l1.3,1.2c-0.2,1.1-0.2,2.3,0,3.4L4.2,18
		c-0.5,0.5-0.6,1.2-0.3,1.8l1.4,2.5c0.3,0.6,1,0.9,1.7,0.7l1.7-0.5c0.9,0.7,1.9,1.3,3,1.7l0.4,1.8c0.2,0.7,0.7,1.1,1.4,1.1h2.9
		c0.7,0,1.3-0.5,1.4-1.1l0.4-1.8c0.5-0.2,1.1-0.4,1.6-0.7c0.5-0.3,1-0.6,1.4-1l1.7,0.5c0.6,0.2,1.3-0.1,1.7-0.7l1.4-2.5
		C26.4,19.2,26.3,18.4,25.8,18z M19.8,19C19.8,19,19.8,19,19.8,19c-0.1,0.1-0.1,0.1-0.2,0.2c-0.1,0.1-0.2,0.2-0.2,0.2
		c-0.1,0.1-0.1,0.1-0.2,0.2c-0.1,0.1-0.2,0.2-0.3,0.2c-0.1,0.1-0.1,0.1-0.2,0.1c-0.1,0.1-0.2,0.2-0.3,0.2c-0.1,0-0.1,0.1-0.2,0.1
		c-0.1,0.1-0.3,0.2-0.4,0.2c0,0-0.1,0-0.1,0.1c-0.2,0.1-0.3,0.1-0.5,0.2c0,0-0.1,0-0.1,0c-0.2,0.1-0.4,0.1-0.5,0.2c0,0,0,0-0.1,0
		c-0.2,0-0.4,0.1-0.6,0.1c0,0,0,0-0.1,0c-0.2,0-0.4,0-0.6,0.1c0,0,0,0,0,0c0,0,0,0,0,0c-0.1,0-0.1,0-0.2,0s-0.1,0-0.2,0h0h0
		c-0.2,0-0.4,0-0.7-0.1c0,0,0,0,0,0c-0.2,0-0.4-0.1-0.6-0.1c0,0,0,0,0,0c-0.2,0-0.4-0.1-0.6-0.2c0,0-0.1,0-0.1,0
		c-0.2-0.1-0.3-0.1-0.5-0.2c0,0-0.1,0-0.1-0.1c-0.1-0.1-0.3-0.1-0.4-0.2c-0.1,0-0.1-0.1-0.2-0.1c-0.1-0.1-0.2-0.1-0.3-0.2
		c-0.1-0.1-0.1-0.1-0.2-0.2c-0.1-0.1-0.2-0.1-0.3-0.2c-0.1-0.1-0.2-0.1-0.2-0.2c-0.1-0.1-0.1-0.2-0.2-0.2c-0.1-0.1-0.1-0.1-0.2-0.2
		c0,0,0,0,0,0c-0.9-1.1-1.4-2.5-1.4-4c0-3.4,2.8-6.2,6.2-6.2s6.2,2.8,6.2,6.2C21.2,16.5,20.7,17.9,19.8,19z"/>
	<path d="M12.6,18.2h-0.4c-0.4,0-0.7,0.2-1,0.4c0,0,0,0,0,0c0.1,0.1,0.3,0.2,0.4,0.3c0.1,0.1,0.2,0.2,0.4,0.3
		c0.2,0.1,0.4,0.2,0.5,0.3c0.1,0.1,0.2,0.1,0.3,0.2c0.2,0.1,0.5,0.2,0.7,0.2c0.1,0,0.2,0.1,0.3,0.1c0.2,0.1,0.5,0.1,0.7,0.1
		c0.1,0,0.2,0,0.3,0h0.2c0.1,0,0.2,0,0.4,0c0.2,0,0.5,0,0.7-0.1c0.1,0,0.2-0.1,0.3-0.1c0.2-0.1,0.5-0.1,0.7-0.2
		c0.1,0,0.2-0.1,0.3-0.2c0.2-0.1,0.4-0.2,0.6-0.3c0.1-0.1,0.2-0.2,0.3-0.3c0.1-0.1,0.3-0.2,0.4-0.4c0,0,0,0,0,0
		c-0.2-0.3-0.6-0.4-1-0.4h-0.4c-0.9,0-1.6-0.7-1.6-1.6v-0.2c0-0.2,0.1-0.4,0.3-0.4c0.3-0.2,0.5-0.5,0.5-0.8v-1.8c0-0.5-0.4-1-1-1
		h-1.2c-0.5,0-1,0.4-1,1v1.8c0,0.3,0.2,0.7,0.5,0.8c0.2,0.1,0.3,0.3,0.3,0.4v0.2C14.2,17.4,13.5,18.2,12.6,18.2z"/>
</g>
</svg>
