<?xml version="1.0" encoding="utf-8"?>
<!-- Generator: Adobe Illustrator 16.0.0, SVG Export Plug-In . SVG Version: 6.00 Build 0)  -->
<!DOCTYPE svg PUBLIC "-//W3C//DTD SVG 1.1//EN" "http://www.w3.org/Graphics/SVG/1.1/DTD/svg11.dtd">
<svg version="1.1" id="Layer_1" xmlns="http://www.w3.org/2000/svg" xmlns:xlink="http://www.w3.org/1999/xlink" x="0px" y="0px"
	 width="30px" height="30px" viewBox="0 0 30 30" enable-background="new 0 0 30 30" xml:space="preserve">
<g>
	<g>
		<path d="M6.8,23c0,0.1,0,0.3,0.2,0.5c0.2,0.2,0.3,0.2,0.5,0.2c0.3,0,0.5-0.1,0.7-0.3l2.3-1.8v-0.1v-3.5l-3.3,4.3
			C6.9,22.4,6.8,22.7,6.8,23z M9.1,20.9c0.3,0,0.5,0.2,0.5,0.5s-0.2,0.5-0.5,0.5c-0.3,0-0.5-0.2-0.5-0.5S8.8,20.9,9.1,20.9z"/>
		<path d="M23.2,7c0-0.1,0-0.3-0.2-0.5c-0.2-0.2-0.3-0.2-0.5-0.2c-0.3,0-0.5,0.1-0.7,0.3l-2.3,1.8v0.1v3.5l3.3-4.3
			C23.1,7.6,23.2,7.3,23.2,7z M20.9,9.1c-0.3,0-0.5-0.2-0.5-0.5s0.2-0.5,0.5-0.5c0.3,0,0.5,0.2,0.5,0.5S21.2,9.1,20.9,9.1z"/>
		<path d="M11.6,14.5l-0.1-0.1v2.2v4.9c0,0.9,0.7,1.7,1.7,1.7h3.7c0.9,0,1.7-0.7,1.7-1.7v-4.9v-2.2l-0.1,0.1
			C16.5,12.6,13.5,12.6,11.6,14.5z M15.1,17.7c-0.1-0.1-0.2-0.1-0.3,0L14.2,17c0.4-0.5,1.2-0.5,1.7,0L15.1,17.7z M16.1,16.8
			c-0.3-0.3-0.7-0.5-1.1-0.5h0c-0.4,0-0.8,0.2-1.1,0.5L13.2,16c0.5-0.5,1.1-0.8,1.8-0.8h0c0.7,0,1.3,0.3,1.8,0.8L16.1,16.8z
			 M17.2,15.6c-1.2-1.2-3.2-1.2-4.5,0l-0.7-0.7c1.6-1.6,4.2-1.6,5.9,0L17.2,15.6z"/>
		<path d="M7.4,6.4c-0.1,0-0.3,0-0.5,0.2C6.8,6.7,6.8,6.9,6.8,7c0,0.3,0.1,0.5,0.3,0.7l3.4,4.3V8.6V8.5L8.2,6.7
			C8,6.5,7.7,6.4,7.4,6.4z M9.1,8.1c0.3,0,0.5,0.2,0.5,0.5S9.4,9.1,9.1,9.1c-0.3,0-0.5-0.2-0.5-0.5S8.8,8.1,9.1,8.1z"/>
		<path d="M16.8,6.9h-3.7c-0.9,0-1.7,0.7-1.7,1.7v4.7c2.1-1.6,4.9-1.6,7,0V8.6C18.5,7.7,17.8,6.9,16.8,6.9z"/>
		<path d="M19.5,17.9v3.5v0.1l2.3,1.8c0.3,0.2,0.5,0.4,0.8,0.4c0.1,0,0.3,0,0.5-0.2c0.2-0.2,0.2-0.3,0.2-0.5c0-0.3-0.1-0.5-0.3-0.7
			L19.5,17.9z M20.9,21.9c-0.3,0-0.5-0.2-0.5-0.5s0.2-0.5,0.5-0.5c0.3,0,0.5,0.2,0.5,0.5S21.2,21.9,20.9,21.9z"/>
	</g>
	<path d="M22.9,4c1.4,0,2.6,1.2,2.6,2.6c0,1-0.5,1.9-1.4,2.3l0.5,0.9c1.2-0.6,2-1.9,2-3.2c0-2-1.6-3.6-3.6-3.6
		c-1.1,0-2.1,0.5-2.8,1.4L20.9,5C21.4,4.4,22.1,4,22.9,4z"/>
	<path d="M5.4,9.9L5.9,9C5,8.5,4.4,7.6,4.4,6.7C4.4,5.2,5.6,4,7.1,4c0.8,0,1.6,0.4,2.1,1l0.8-0.6C9.2,3.5,8.2,3,7.1,3
		c-2,0-3.6,1.6-3.6,3.6C3.4,8,4.2,9.3,5.4,9.9z"/>
	<path d="M7.1,26c-1.4,0-2.6-1.2-2.6-2.6c0-1,0.5-1.9,1.4-2.3l-0.5-0.9c-1.2,0.6-2,1.9-2,3.2c0,2,1.6,3.6,3.6,3.6
		c1.1,0,2.1-0.5,2.8-1.4L9.1,25C8.6,25.6,7.9,26,7.1,26z"/>
	<path d="M24.6,20.1L24.1,21c0.9,0.4,1.4,1.3,1.4,2.3c0,1.4-1.2,2.6-2.6,2.6c-0.8,0-1.6-0.4-2.1-1l-0.8,0.6c0.7,0.9,1.7,1.4,2.8,1.4
		c2,0,3.6-1.6,3.6-3.6C26.6,22,25.8,20.7,24.6,20.1z"/>
</g>
</svg>
