<?xml version="1.0" encoding="utf-8"?>
<!-- Generator: Adobe Illustrator 16.0.0, SVG Export Plug-In . SVG Version: 6.00 Build 0)  -->
<!DOCTYPE svg PUBLIC "-//W3C//DTD SVG 1.1//EN" "http://www.w3.org/Graphics/SVG/1.1/DTD/svg11.dtd">
<svg version="1.1" id="Layer_1" xmlns="http://www.w3.org/2000/svg" xmlns:xlink="http://www.w3.org/1999/xlink" x="0px" y="0px"
	 width="30px" height="30px" viewBox="0 0 30 30" enable-background="new 0 0 30 30" xml:space="preserve">
<path d="M12.2,9.7H13c0.2,0,0.4-0.2,0.5-0.4c0.1-0.2,0-0.4-0.2-0.6c-0.5-0.3-0.8-0.8-0.8-1.3V5.6C12.5,4.7,13.2,4,14,4H16
	c0.8,0,1.5,0.7,1.5,1.5v1.9c0,0.5-0.3,1-0.8,1.3c-0.2,0.1-0.3,0.3-0.2,0.6c0.1,0.2,0.3,0.4,0.5,0.4h0.8c0.8,0,1.4,0.6,1.5,1.3
	c0,0,0,0,0,0c0,0.1,0,0.2,0,0.3v0.4c-1.4-0.7-3.2-0.4-4.4,0.5c-0.7-0.6-1.6-0.9-2.6-0.9c-0.6,0-1.2,0.1-1.8,0.4v-0.4
	c0-0.1,0-0.2,0-0.2c0,0,0,0,0,0C10.8,10.3,11.4,9.7,12.2,9.7z M10.2,20.2c-0.2,0-0.4,0.2-0.4,0.5v4.8c0,0.3-0.2,0.5-0.5,0.5H6.6
	c-0.3,0-0.5-0.2-0.5-0.5v-4.8c0-0.2-0.2-0.5-0.4-0.5c-0.5-0.1-0.8-0.5-0.8-1v-3.9c0-0.5,0.4-1,1-1h0.6c0.2,0,0.4-0.2,0.5-0.4
	c0.1-0.2,0-0.4-0.2-0.6c-0.3-0.2-0.5-0.5-0.5-0.8v-1.4c0-0.5,0.4-1,1-1h1.4c0.5,0,0.9,0.3,1,0.8c0,0.1,0,0.2,0,0.3v1.1
	c-0.7,0.7-1.2,1.6-1.2,2.6c0,0.8,0.2,1.5,0.7,2.1c0,0,0.1,0.1,0.1,0.1l1.8,2.1C11,19.8,10.7,20.2,10.2,20.2z M17.7,25.2
	c0,0.5-0.4,0.8-0.8,0.8h-3.7c-0.5,0-0.8-0.4-0.8-0.8v-4.4l1.7,2c0.5,0.6,1.4,0.6,1.9,0l1.7-2V25.2z M25.1,19.3c0,0.5-0.4,0.9-0.8,1
	c-0.2,0-0.4,0.2-0.4,0.5v4.8c0,0.3-0.2,0.5-0.5,0.5h-2.7c-0.3,0-0.5-0.2-0.5-0.5v-4.8c0-0.2-0.2-0.5-0.4-0.5c-0.5-0.1-0.8-0.5-0.8-1
	v0l1.8-2.1c0,0,0.1-0.1,0.1-0.1c0.5-0.6,0.7-1.3,0.7-2.1c0-1-0.4-1.9-1.2-2.6v-1.1c0-0.1,0-0.2,0-0.3c0.1-0.5,0.5-0.8,1-0.8h1.4
	c0.5,0,1,0.4,1,1v1.4c0,0.3-0.2,0.7-0.5,0.8C23,13.5,22.9,13.8,23,14c0.1,0.2,0.3,0.4,0.5,0.4h0.6c0.5,0,1,0.4,1,1V19.3z"/>
</svg>
