<?xml version="1.0" encoding="utf-8"?>
<!-- Generator: Adobe Illustrator 16.0.0, SVG Export Plug-In . SVG Version: 6.00 Build 0)  -->
<!DOCTYPE svg PUBLIC "-//W3C//DTD SVG 1.1//EN" "http://www.w3.org/Graphics/SVG/1.1/DTD/svg11.dtd">
<svg version="1.1" id="Layer_1" xmlns="http://www.w3.org/2000/svg" xmlns:xlink="http://www.w3.org/1999/xlink" x="0px" y="0px"
	 width="30px" height="30px" viewBox="0 0 30 30" enable-background="new 0 0 30 30" xml:space="preserve">
<g>
	<g>
		<g>
			<g>
				<g>
					<g>
						<g>
							<g>
								<path d="M15.001,21.223c-3.432,0-6.223-2.791-6.223-6.223s2.791-6.223,6.223-6.223s6.223,2.791,6.223,6.223
									S18.433,21.223,15.001,21.223z M15.001,9.777c-2.88,0-5.223,2.343-5.223,5.223s2.343,5.223,5.223,5.223
									S20.224,17.88,20.224,15S17.881,9.777,15.001,9.777z"/>
							</g>
						</g>
					</g>
				</g>
			</g>
		</g>
		<g>
			<path d="M15.155,21.215h-0.311c-1.8-0.047-3.48-0.861-4.624-2.232c-0.127-0.152-0.152-0.365-0.064-0.543
				c0.392-0.786,1.177-1.275,2.05-1.275h0.42c0.293,0,0.538-0.215,0.587-0.496c-0.469-0.365-0.749-0.928-0.749-1.529v-1.764
				c0-1.076,0.875-1.951,1.951-1.951h1.17c1.077,0,1.953,0.875,1.953,1.951v1.764c0,0.602-0.281,1.163-0.751,1.529
				c0.05,0.281,0.296,0.496,0.591,0.496h0.418c0.871,0,1.655,0.488,2.049,1.274c0.089,0.178,0.063,0.392-0.063,0.544
				c-1.146,1.372-2.827,2.186-4.613,2.232C15.164,21.215,15.159,21.215,15.155,21.215z M11.231,18.613
				c0.946,0.986,2.249,1.565,3.626,1.602h0.291c1.375-0.038,2.675-0.616,3.621-1.602c-0.242-0.282-0.594-0.449-0.974-0.449h-0.418
				c-0.882,0-1.6-0.718-1.6-1.6v-0.158c0-0.183,0.1-0.352,0.261-0.438c0.308-0.168,0.499-0.486,0.499-0.829v-1.764
				c0-0.524-0.428-0.951-0.953-0.951h-1.17c-0.524,0-0.951,0.427-0.951,0.951v1.764c0,0.344,0.19,0.661,0.497,0.829
				c0.161,0.087,0.261,0.256,0.261,0.438v0.158c0,0.882-0.716,1.6-1.596,1.6h-0.42C11.824,18.164,11.473,18.331,11.231,18.613z"/>
		</g>
	</g>
	<g>
		<g>
			<g>
				<g>
					<g>
						<path d="M16.437,26.979h-2.875c-0.674,0-1.256-0.459-1.414-1.115l-0.422-1.763c-1.09-0.394-2.086-0.97-2.968-1.717
							l-1.74,0.514c-0.634,0.189-1.345-0.098-1.672-0.668l-1.438-2.487c-0.338-0.582-0.232-1.313,0.257-1.779l1.319-1.254
							c-0.207-1.143-0.208-2.293-0.003-3.428l-1.313-1.247c-0.49-0.463-0.597-1.196-0.258-1.781l1.437-2.491
							C5.673,7.196,6.38,6.91,7.014,7.094l1.745,0.519c0.443-0.378,0.914-0.711,1.403-0.993c0.493-0.283,1.018-0.525,1.563-0.719
							l0.422-1.763c0.158-0.656,0.739-1.114,1.414-1.114l2.875-0.002c0.676,0,1.257,0.459,1.414,1.116l0.424,1.76
							c1.085,0.392,2.079,0.968,2.964,1.715l1.744-0.516c0.646-0.186,1.346,0.1,1.673,0.667l1.438,2.492
							c0.337,0.584,0.23,1.316-0.26,1.781l-1.318,1.252c0.206,1.139,0.208,2.287,0.004,3.422l1.316,1.249
							c0.489,0.463,0.596,1.194,0.26,1.779l-1.44,2.493c-0.328,0.568-1.035,0.849-1.669,0.668l-1.741-0.517
							c-0.445,0.379-0.918,0.713-1.407,0.993c-0.488,0.283-1.014,0.526-1.562,0.723l-0.426,1.766
							C17.693,26.521,17.112,26.979,16.437,26.979z M8.88,21.326c0.122,0,0.241,0.045,0.334,0.128
							c0.899,0.809,1.938,1.409,3.09,1.788c0.165,0.054,0.29,0.189,0.33,0.358l0.486,2.029c0.05,0.205,0.23,0.349,0.441,0.349h2.875
							c0.207,0,0.392-0.146,0.439-0.346l0.49-2.035c0.041-0.169,0.166-0.305,0.332-0.358c0.579-0.188,1.131-0.434,1.639-0.729
							c0.51-0.292,0.996-0.646,1.45-1.056c0.129-0.117,0.312-0.155,0.478-0.108l2.003,0.594c0.184,0.054,0.418-0.031,0.521-0.209
							l1.439-2.491c0.103-0.179,0.068-0.413-0.081-0.555l-1.516-1.438c-0.126-0.119-0.182-0.295-0.146-0.465
							c0.247-1.179,0.245-2.378-0.004-3.564c-0.036-0.169,0.02-0.346,0.145-0.465l1.518-1.441c0.151-0.143,0.185-0.377,0.082-0.556
							l-1.438-2.492c-0.102-0.178-0.32-0.267-0.524-0.207l-2.005,0.593c-0.165,0.048-0.345,0.009-0.475-0.106
							c-0.904-0.809-1.942-1.41-3.088-1.787c-0.164-0.054-0.289-0.189-0.33-0.357l-0.488-2.027c-0.049-0.206-0.23-0.35-0.44-0.35
							l-2.876,0.002c-0.211,0-0.393,0.143-0.441,0.348l-0.486,2.03c-0.041,0.17-0.167,0.306-0.333,0.359
							c-0.575,0.186-1.127,0.43-1.639,0.726c-0.508,0.292-0.994,0.647-1.446,1.055C9.087,8.658,8.905,8.699,8.738,8.649L6.734,8.054
							c-0.174-0.049-0.42,0.032-0.521,0.208l-1.437,2.492c-0.106,0.183-0.073,0.41,0.08,0.555l1.513,1.437
							c0.125,0.119,0.181,0.296,0.145,0.466c-0.248,1.179-0.247,2.38,0.003,3.569c0.036,0.169-0.02,0.346-0.145,0.465l-1.518,1.441
							c-0.152,0.146-0.186,0.374-0.081,0.555l1.438,2.489c0.104,0.179,0.319,0.266,0.522,0.208l2.004-0.592
							C8.785,21.333,8.833,21.326,8.88,21.326z"/>
					</g>
				</g>
			</g>
		</g>
	</g>
</g>
</svg>
