<svg id="5f0e6268-c746-4dd8-b705-0d0d2e4e7cd8" data-name="25255233-7c55-45c6-a316-95410a01d62c" xmlns="http://www.w3.org/2000/svg" viewBox="0 0 103.7 121.95">
  <title>logo-footer</title>
  <g>
    <path d="M141.2,231.92h35.5v24.3h-3.55v2.45h5a1.17,1.17,0,0,0,1.05-1.05V230.47a1.17,1.17,0,0,0-1.05-1.05H142.6v-43.9h44v25.65H160.9v-13.4h-2.45v14.75a1.13,1.13,0,0,0,1.2,1.05.37.37,0,0,0,.25-.05h27.8a1.18,1.18,0,0,0,1.2-1.2v-28.1a.37.37,0,0,0-.05-.25h0a1.17,1.17,0,0,0-1-.95H141.2a1.12,1.12,0,0,0-.7.3,1.33,1.33,0,0,0-.35.7v46.7a1.12,1.12,0,0,0,.3.7A.84.84,0,0,0,141.2,231.92Z" transform="translate(-140.15 -164.77)" fill="#fff"/>
    <path d="M173.15,261.07v2.5h9.9a1.17,1.17,0,0,0,1.05-1.05v-36.9a1.17,1.17,0,0,0-1.05-1.05H147.5v-34.1h34.25v15.95h-16v-8.6H163.3v9.95a1.17,1.17,0,0,0,.95,1.05h19.8v-.05h0v-.3h0v-.1h0v-.05h0v-.05h0v-.05h0v-.05h0V208h0v-.15h0v-18.7h0c0-.1,0-.15-.05-.2h0A1.17,1.17,0,0,0,183,188h-36.8a1.12,1.12,0,0,0-.7.3.82.82,0,0,0-.3.7v36.9a1.12,1.12,0,0,0,.3.7,1,1,0,0,0,.7.3h35.5V261h-8.5Z" transform="translate(-140.15 -164.77)" fill="#fff"/>
    <path d="M173.15,268.48H188a1.17,1.17,0,0,0,1.05-1.05V220.67a1.12,1.12,0,0,0-.3-.7,1,1,0,0,0-.7-.3H152.45v-24.3H177v6.25h-6.25v-3.8H168.3V203a1.07,1.07,0,0,0,.95,1h0a.52.52,0,0,1,.2.05h9a.18.18,0,0,0,.15-.05h.55l.05-.05h0v-.05h0v-.3h0v-.05h0v-.2h0v-.05h0v-.45h0v-.05h0v-8.7h0v-.25h0a1,1,0,0,0-1.05-.95H151a1.12,1.12,0,0,0-.7.3,1,1,0,0,0-.3.7V221a1,1,0,0,0,.35.7,1,1,0,0,0,.7.3h35.5v43.85H173.15v2.5h0Z" transform="translate(-140.15 -164.77)" fill="#fff"/>
    <path d="M243.8,184.07h0a1.12,1.12,0,0,0-1.05-.95H228v2.45h13.4v25.65H215.75V175.77a1,1,0,0,0-.35-.7,1.3,1.3,0,0,0-.85-.35H169.4a1.16,1.16,0,0,0-1.2,1v5h2.45v-3.55H213.3v35.45a1.07,1.07,0,0,0,.95,1h0a.52.52,0,0,1,.2.05H242.6a1.18,1.18,0,0,0,1.2-1.2v-28.1C243.85,184.17,243.85,184.12,243.8,184.07Z" transform="translate(-140.15 -164.77)" fill="#fff"/>
    <path d="M236.65,206.42l-15.95.15v-7.45h0v-28.3a1.19,1.19,0,0,0-1.15-1h-55a1.16,1.16,0,0,0-1.2,1v9.9h2.45v-8.45H218.2v35.6a1.17,1.17,0,0,0,1.2,1.15l18.4-.15h.05a1.21,1.21,0,0,0,1.05-.7h0v-.05h0v-.05h0c0-.05,0-.05.05-.1v-.1h0V189h0a1.17,1.17,0,0,0-1.05-.95H228v2.45h8.6l0,16Z" transform="translate(-140.15 -164.77)" fill="#fff"/>
    <path d="M160.85,167.32h62.3V203a1.07,1.07,0,0,0,.95,1h0a2.17,2.17,0,0,1,.25.05h9.55L234,204H234l.05-.05h0l.05-.05h0l.05-.05h0v-.05l.05-.05v-.05l.05-.05v-.05h0c0-.05.05-.1.05-.15v-9h0c0-.1,0-.15-.05-.2h0a1.12,1.12,0,0,0-1.05-.95H228v2.45h3.8v6.2h-6.2v-36a1.13,1.13,0,0,0-1.2-1,.74.74,0,0,0-.35,0H159.6a1.15,1.15,0,0,0-1.15,1v14.8h2.45V167.32Z" transform="translate(-140.15 -164.77)" fill="#fff"/>
    <path d="M242.8,219.67H207.3v-24.3h3.6v-2.45h-5a1.12,1.12,0,0,0-.7.3,1,1,0,0,0-.3.7v27.15a1.12,1.12,0,0,0,.3.7,1,1,0,0,0,.7.3h35.5V266H197.45v-25.6H223.1v13.35h2.45V239a1.07,1.07,0,0,0-.95-1h0a2.17,2.17,0,0,1-.25-.05h-28.1a1.18,1.18,0,0,0-1.2,1.2v28.1a.37.37,0,0,0,.05.25h0a1.17,1.17,0,0,0,1,.95h46.7a1.17,1.17,0,0,0,1.05-1.05v-46.7a1.08,1.08,0,0,0-1.05-1Z" transform="translate(-140.15 -164.77)" fill="#fff"/>
    <path d="M210.9,190.42V188H201a1.12,1.12,0,0,0-.7.3,1,1,0,0,0-.3.7v36.75a1.1,1.1,0,0,0,1.05,1.2h35.5V261H202.3V245.07h15.95v8.6h2.45v-9.95a1.17,1.17,0,0,0-.95-1.05h-19.6v.05h0v.1h0v.3h0v19.05c0,.1,0,.2.05.2h0a1.17,1.17,0,0,0,1,.95h36.9a1.12,1.12,0,0,0,.7-.3,1,1,0,0,0,.3-.7v-36.7a1.17,1.17,0,0,0-1.05-1.05h-35.5v-34.1l8.35-.05Z" transform="translate(-140.15 -164.77)" fill="#fff"/>
    <path d="M223.1,284.27H160.85V248.62a1.17,1.17,0,0,0-1-1.05h0a.52.52,0,0,1-.2-.05h-8.55a1.18,1.18,0,0,0-1.2,1.2v8.65h0a.37.37,0,0,0,0,.25h0a1.17,1.17,0,0,0,1,.95h5v-2.45h-3.65V250h6.1v35.7a1.13,1.13,0,0,0,1.2,1.05h64.7a1.13,1.13,0,0,0,1.2-1.05v-14.8H223.1v13.4Z" transform="translate(-140.15 -164.77)" fill="#fff"/>
    <path d="M147.55,245.23h15.8v35.6a1.16,1.16,0,0,0,1.2,1.05h54.9a1.16,1.16,0,0,0,1.2-1.05v-9.9H218.2v8.5H165.75V243.87a1.07,1.07,0,0,0-.95-1h0a.52.52,0,0,1-.2-.05H147.2a.85.85,0,0,1-.8,0,1.22,1.22,0,0,0-1.2,1.2v18.35c0,.1,0,.2,0,.2h0a1.17,1.17,0,0,0,1,.95H156V261h-8.45Z" transform="translate(-140.15 -164.77)" fill="#fff"/>
    <path d="M142.75,240.37H168.2v35.5a1.16,1.16,0,0,0,1.2,1.05h45.15a1.16,1.16,0,0,0,1.2-1.05v-5H213.3v3.6H170.7v-35.4a1.07,1.07,0,0,0-.95-1h0a2.17,2.17,0,0,1-.25-.05H141.65a1.18,1.18,0,0,0-1.2,1.2v28.1a1.22,1.22,0,0,0,1.2,1.2.85.85,0,0,0,.35-.05h14V266H142.75Z" transform="translate(-140.15 -164.77)" fill="#fff"/>
    <path d="M210.9,183.12H196.1a1.12,1.12,0,0,0-.7.3,1,1,0,0,0-.3.7v46.75a1.17,1.17,0,0,0,1.05,1.05h35.5v24.3H207.1V250h6.25v3.8h2.45v-5.2a1.07,1.07,0,0,0-.9-1h0a2.17,2.17,0,0,1-.25-.05H205.9a1.22,1.22,0,0,0-1.2,1.2v8.7a.37.37,0,0,0,.05.25h0a1.17,1.17,0,0,0,1,.95H233a1.17,1.17,0,0,0,1.05-1.05V230.42a1.17,1.17,0,0,0-1.05-1.05h-35.5v-43.9H210.9v-2.35Z" transform="translate(-140.15 -164.77)" fill="#fff"/>
  </g>
</svg>
