<?xml version="1.0" encoding="utf-8"?>
<!-- Generator: Adobe Illustrator 21.0.2, SVG Export Plug-In . SVG Version: 6.00 Build 0)  -->
<svg version="1.1" id="_x32_5255233-7c55-45c6-a316-95410a01d62c"
	 xmlns="http://www.w3.org/2000/svg" xmlns:xlink="http://www.w3.org/1999/xlink" x="0px" y="0px" viewBox="0 0 384 451.6"
	 style="enable-background:new 0 0 384 451.6;" xml:space="preserve">
<style type="text/css">
	.st0{fill:#FFFFFF;}
</style>
<title>logo</title>
<g>
	<path class="st0" d="M90.4,238.1h71v48.6h-7.1v4.9h10c1.1-0.1,2-1,2.1-2.1v-54.3c-0.1-1.1-1-2-2.1-2.1H93.2v-87.8h87.9v51.3h-51.3
		v-26.8h-4.9v29.5c0,1.2,1.1,2.1,2.4,2.1c0.2,0,0.4,0,0.5-0.1h55.6c1.4,0,2.4-1.1,2.4-2.4v-56.2c0-0.2,0-0.4-0.1-0.5l0,0
		c-0.2-1-1-1.8-2-1.9H90.4c-0.5,0-1.1,0.3-1.4,0.6c-0.4,0.4-0.6,0.9-0.7,1.4v93.4c0,0.5,0.3,1.1,0.6,1.4
		C89.3,237.9,89.8,238,90.4,238.1z"/>
	<path class="st0" d="M154.3,296.4v5h19.8c1.1-0.1,2-1,2.1-2.1v-73.8c-0.1-1.1-1-2-2.1-2.1H103v-68.2h68.5v31.9h-32v-17.2h-4.9v19.9
		c0.1,1.1,0.9,1.9,1.9,2.1l0,0c0.2,0,0.3,0,0.4,0h37.1h0.1l0,0h0.1h0.1h0.1h0.1l0,0h0.1h0.1h0.1h0.1l0,0h0.1h0.1h0.1h0.1l0,0h0.1
		l0,0h0.1h0.1l0,0l0,0h0.1l0,0h0.1l0,0h0.1l0,0l0,0h0.1l0,0l0,0h0.1l0,0l0,0l0,0l0,0l0,0l0,0l0,0l0,0l0,0l0,0l0,0l0,0l0,0l0,0v-0.1
		l0,0l0,0l0,0v-0.1v-0.1v-0.1v-0.1v-0.1v-0.1l0,0v-0.1v-0.1V191v-0.1l0,0v-0.1l0,0v-0.1l0,0v-0.1l0,0v-0.1v-0.1v-0.1l0,0v-0.1v-0.1
		v-0.1V190v-0.1v-37.3l0,0c0-0.2,0-0.3-0.1-0.4l0,0c-0.2-1-1-1.8-2.1-1.9h-73.6c-0.5,0-1.1,0.3-1.4,0.6c-0.5,0.4-0.6,0.9-0.6,1.4
		v73.8c0,0.5,0.3,1.1,0.6,1.4c0.4,0.4,0.9,0.6,1.4,0.6h71v68.2H154.3z"/>
	<path class="st0" d="M154.3,311.2h29.6c1.1-0.1,2-1,2.1-2.1v-93.5c0-0.5-0.3-1.1-0.6-1.4c-0.4-0.4-0.9-0.6-1.4-0.6h-71.1V165h49.1
		v12.5h-12.5v-7.6h-4.9v10.4c0.1,1,0.8,1.9,1.9,2l0,0c0.2,0,0.4,0.1,0.4,0.1h17.7h0.3l0,0c0.1,0,0.2,0,0.3-0.1h0.1h0.1h0.1h0.1l0,0
		h0.1h0.1h0.1h0.1h0.1l0,0h0.1l0,0l0,0l0,0l0,0l0,0l0,0h0.1l0,0l0,0l0,0l0.1-0.1l0,0l0,0l0,0l0,0l0,0l0,0l0,0v-0.1l0,0V182v-0.1
		v-0.1v-0.1v-0.1v-0.1l0,0v-0.1l0,0v-0.1v-0.1v-0.1v-0.1V181l0,0v-0.1l0,0v-0.1v-0.1v-0.1v-0.1v-0.1v-0.4l0,0l0,0V180l0,0v-0.1l0,0
		v-17.4l0,0c0-0.2,0-0.3,0-0.5l0,0l0,0c-0.1-1.1-1-1.9-2.1-1.9h-54.4c-0.5,0-1.1,0.3-1.4,0.6c-0.4,0.4-0.6,0.9-0.6,1.4v54.2
		c0,0.5,0.3,1.1,0.7,1.4c0.4,0.4,0.9,0.6,1.4,0.6h71v87.7h-26.7v5H154.3z"/>
	<path class="st0" d="M295.6,142.4L295.6,142.4c-0.2-1.1-1-1.8-2.1-1.9H264v4.9h26.8v51.3h-51.3v-70.9c0-0.5-0.3-1.1-0.7-1.4
		c-0.4-0.4-1.1-0.7-1.7-0.7h-90.3c-1.3,0-2.4,1-2.4,2.1v10h4.9v-7.1h85.3v70.9c0.1,1,0.8,1.9,1.9,2l0,0c0.2,0,0.4,0.1,0.4,0.1h56.3
		c1.4,0,2.4-1.1,2.4-2.4v-56.2C295.7,142.6,295.7,142.5,295.6,142.4z"/>
	<path class="st0" d="M281.3,187.1l-31.9,0.3v-14.9l0,0v-56.6c0-1.1-1.1-2-2.3-2.1H137c-1.3,0-2.4,1-2.4,2.1v19.8h4.9v-16.9h104.9
		V190c0,1.3,1.1,2.3,2.4,2.3l36.8-0.3h0.1c0.9,0,1.7-0.6,2.1-1.4l0,0v-0.1l0,0v-0.1l0,0c0-0.1,0-0.1,0.1-0.2v-0.1v-0.1V190l0,0v-0.1
		v-0.1v-0.2v-0.1v-36.9c0-0.2,0-0.3,0-0.4v0c-0.2-1-1-1.8-2.1-1.9H264v4.9h17.2L281.3,187.1L281.3,187.1z"/>
	<path class="st0" d="M129.7,108.9h124.6v71.3c0.1,1,0.8,1.9,1.9,2l0,0c0.2,0,0.4,0.1,0.5,0.1h17.7h0.1h0.1h0.1l0,0h0.1h0.1h0.1h0.1
		h0.1l0,0h0.1h0.1l0,0h0.1h0.1l0,0h0.1l0,0h0.1l0,0l0.1-0.1l0,0l0,0l0,0h0.1l0,0l0,0l0.1-0.1l0,0l0,0l0,0l0,0l0,0l0,0l0,0l0,0l0,0
		l0,0l0.1-0.1l0,0l0,0l0,0l0.1-0.1l0,0l0,0v-0.1l0.1-0.1v-0.1l0.1-0.1v-0.1l0,0c0-0.1,0.1-0.2,0.1-0.3c0-0.1,0-0.2,0-0.3v-0.1V163
		l0,0c0-0.2,0-0.3-0.1-0.4l0,0c-0.2-1.1-1-1.8-2.1-1.9H264v4.9h7.6V178h-12.4v-72.1c0-1.2-1.1-2.1-2.4-2.1c-0.3,0-0.5,0-0.7,0.1
		H127.2c-1.3,0.1-2.3,1-2.3,2.1v29.6h4.9V108.9z"/>
	<path class="st0" d="M293.6,213.6h-71V165h7.2v-4.9h-10c-0.5,0-1.1,0.3-1.4,0.6c-0.4,0.4-0.6,0.9-0.6,1.4v54.3
		c0,0.5,0.3,1.1,0.6,1.4c0.4,0.4,0.9,0.6,1.4,0.6h71v87.8h-87.9V255h51.3v26.7h4.9v-29.5c-0.1-1-0.8-1.9-1.9-2l0,0
		c-0.2,0-0.4-0.1-0.5-0.1h-56.2c-1.4,0-2.4,1.1-2.4,2.4v56.2c0,0.2,0,0.4,0.1,0.5l0,0c0.2,1,1,1.8,2,1.9h93.4c1.1-0.1,2-1,2.1-2.1
		v-93.4C295.6,214.5,294.7,213.6,293.6,213.6L293.6,213.6z"/>
	<path class="st0" d="M229.8,155.1v-4.9H210c-0.5,0-1.1,0.3-1.4,0.6c-0.4,0.4-0.6,0.9-0.6,1.4v73.1c0,0.1,0,0.1,0,0.2s0,0.2,0,0.2
		c0,1.4,0.9,2.4,2.1,2.4h71v68.2h-68.5v-31.9h31.9v17.2h4.9v-19.9c-0.1-1.1-0.9-1.9-1.9-2.1l0,0l0,0c-0.2,0-0.3,0-0.4,0h-37.1h-0.1
		h-0.1h-0.1h-0.1h-0.1h-0.1h-0.1h-0.1H209h-0.1l0,0h-0.1h0.3l0,0H209l0,0l0,0h-0.1h-0.1l0,0h-0.1l0,0h-0.1l0,0h-0.1l0,0h-0.1l0,0
		h-0.1l0,0l0,0l0,0l0,0l0,0l0,0v0.1l0,0l0,0v0.1v0.1l0,0v0.1v0.1v0.1v0.1v0.1v0.1l0,0v0.1v0.1v0.1v0.1v0.1v0.1v0.1v0.1v0.1v0.1v0.1
		v37c0,0.2,0,0.4,0.1,0.4l0,0c0.2,1,1,1.8,2,1.9h73.8c0.5,0,1.1-0.3,1.4-0.6c0.4-0.4,0.6-0.9,0.6-1.4v-73.4c-0.1-1.1-1-2-2.1-2.1
		h-71v-68.2L229.8,155.1L229.8,155.1z"/>
	<path class="st0" d="M254.2,342.8H129.7v-71.3c-0.1-1-0.8-1.9-1.9-2.1l0,0c-0.2,0-0.4-0.1-0.4-0.1h-17.1c-1.4,0-2.4,1.1-2.4,2.4
		v17.3l0,0c0,0.2,0,0.4,0.1,0.5l0,0c0.2,1,1,1.8,2,1.9H120v-4.9h-7.3v-12.3h12.2v71.4c0,1.2,1.1,2.1,2.4,2.1h129.4
		c1.4,0,2.4-1,2.4-2.1V316h-4.9L254.2,342.8L254.2,342.8z"/>
	<path class="st0" d="M103.1,264.7h31.6v71.2c0,1.1,1.1,2.1,2.4,2.1h109.8c1.3,0,2.4-1,2.4-2.1v-19.8h-4.9v17H139.5V262
		c-0.1-1-0.8-1.9-1.9-2l0,0c-0.2,0-0.4-0.1-0.4-0.1h-34.8c-0.3,0-0.5,0.1-0.8,0.2c-0.3-0.1-0.5-0.2-0.8-0.2c-1.3,0-2.4,1.1-2.4,2.4
		v36.7c0,0.2,0,0.4,0.1,0.4l0,0c0.2,1,1,1.8,2,1.9H120v-5h-16.9V264.7z"/>
	<path class="st0" d="M93.5,255h50.9V326c0,1.1,1.1,2.1,2.4,2.1h90.3c1.3,0,2.4-1,2.4-2.1v-10h-4.9v7.2h-85.2v-70.8
		c-0.1-1-0.8-1.9-1.9-2l0,0l0,0c-0.2,0-0.4-0.1-0.5-0.1H91.3c-1.4,0-2.4,1.1-2.4,2.4v56.2c0,1.3,1.1,2.4,2.4,2.4
		c0.3,0,0.4,0,0.7-0.1h28v-5H93.5V255z"/>
	<path class="st0" d="M229.8,140.5h-29.6c-0.5,0-1.1,0.3-1.4,0.6c-0.4,0.4-0.6,0.9-0.6,1.4V236c0.1,1.1,1,2,2.1,2.1h71v48.6h-49.1
		v-12.5h12.5v7.6h4.9v-10.4c-0.1-1-0.8-1.9-1.8-2l0,0l0,0c-0.2,0-0.4-0.1-0.5-0.1h-17.5c-1.3,0-2.4,1.1-2.4,2.4v17.4
		c0,0.2,0,0.4,0.1,0.5l0,0c0.2,1,1,1.8,2,1.9h54.6c1.1-0.1,2-1,2.1-2.1v-54.3c-0.1-1.1-1-2-2.1-2.1h-71v-87.8h26.7V140.5z"/>
</g>
</svg>
